<svg xmlns="http://www.w3.org/2000/svg"  viewBox="0 0 48 48" width="48px" height="48px" baseProfile="basic"><path fill="#12d9e3" d="M35,5h-1l-4,1l-3.063-1h-5.943L18,6l-4-1h-1c-2.761,0-5,2.239-5,5v29c0,2.761,2.239,5,5,5h24.6	c1.325,0,2.4-1.075,2.4-2.4V10C40,7.239,37.761,5,35,5z"/><path fill="#324561" d="M34,7h-7.77c-0.396,0-0.754-0.232-0.914-0.594s-0.093-0.784,0.172-1.077C25.818,4.965,26,4.492,26,4	c0-1.103-0.897-2-2-2s-2,0.897-2,2c0,0.492,0.182,0.965,0.512,1.329c0.265,0.293,0.332,0.716,0.172,1.077S22.165,7,21.77,7H14	c-0.553,0-1-0.447-1-1s0.447-1,1-1h6.127C20.043,4.676,20,4.341,20,4c0-2.206,1.794-4,4-4s4,1.794,4,4c0,0.341-0.043,0.676-0.127,1	H34c0.553,0,1,0.447,1,1S34.553,7,34,7z"/><path fill="#324561" d="M32,18H16c-0.553,0-1-0.447-1-1s0.447-1,1-1h16c0.553,0,1,0.447,1,1S32.553,18,32,18z"/><path fill="#324561" d="M31,30H16c-0.553,0-1-0.447-1-1s0.447-1,1-1h15c0.553,0,1,0.447,1,1S31.553,30,31,30z"/><path fill="#324561" d="M28,36H16c-0.553,0-1-0.447-1-1s0.447-1,1-1h12c0.553,0,1,0.447,1,1S28.553,36,28,36z"/><path fill="#324561" d="M26,24H16c-0.553,0-1-0.447-1-1s0.447-1,1-1h10c0.553,0,1,0.447,1,1S26.553,24,26,24z"/></svg>